# xmcd
#
# Track frame offsets: 
#        150
#        14931
#        30736
#        56850
#        70358
#        101440
#        117511
#        144700
#        164819
#        181583
#        206639
#
# Disc length: 3015 seconds
#
# Revision: 0
# Processed by: cddbd v1.5.2PL0 Copyright (c) Steve Scherf et al.
# Submitted via: ExactAudioCopyFreeDBPlugin 1.0
#
DISCID=ab0bc50b
DTITLE=Bad Temper Joe - The Maddest Of Them All
DYEAR=2019
DGENRE=Blues
TTITLE0=Everything's Gonna Be Just Fine
TTITLE1=Waiting in Vain
TTITLE2=Bury Me Anyplace but Mississippi
TTITLE3=Cheap Beer and One Night Stands
TTITLE4=Blues Never Stumbles
TTITLE5=Life's a Gamble
TTITLE6=Races to Run
TTITLE7=Rebel River Incident
TTITLE8=High Hopes
TTITLE9=Mind Over Matter
TTITLE10=Our Love (for Livia)
EXTD=
EXTT0=
EXTT1=
EXTT2=
EXTT3=
EXTT4=
EXTT5=
EXTT6=
EXTT7=
EXTT8=
EXTT9=
EXTT10=
PLAYORDER=
